<svg width="196" height="39" viewBox="0 0 196 39" fill="none" xmlns="http://www.w3.org/2000/svg">
<path d="M4.92554 30.5563H4.61918e-05V7.8899H4.51508V14.9133H4.83432C5.51842 11.0824 8.52844 7.43384 14.2748 7.43384C20.5685 7.43384 23.6698 11.6752 23.6698 16.92V30.5563H18.7443V18.2426C18.7443 14.0012 16.8288 11.8577 12.1313 11.8577C7.16025 11.8577 4.92554 14.4116 4.92554 19.3371V30.5563ZM31.616 30.5563H26.6905V-1.2952e-06H31.616V16.8744H38.0921L44.8874 7.8899H50.6338L42.1054 18.7898L50.5882 30.5563H44.7962L38.0921 21.2982H31.616V30.5563ZM56.614 30.5563H51.6885V-1.2952e-06H56.614V30.5563ZM74.3552 30.5563H68.3352L57.7545 7.8899H63.1816L71.254 25.7676H71.6188L79.6912 7.8899H85.0271L74.3552 30.5563ZM91.4758 30.5563H85.2733V23.4873H91.4758V30.5563ZM103.757 31.0123C96.5969 31.0123 92.6291 26.2237 92.6291 19.2459C92.6291 12.1769 96.5513 7.43384 103.438 7.43384C108.819 7.43384 111.875 10.2158 112.787 14.0468H113.061V-1.2952e-06H117.986V30.5563H113.471V24.0346H113.152C112.194 28.5496 108.865 31.0123 103.757 31.0123ZM97.6002 19.2459C97.6002 24.6731 100.382 26.4973 105.262 26.4973C110.096 26.4973 113.061 24.217 113.061 19.4739V19.1091C113.061 14.2748 110.233 11.9033 105.171 11.9033C100.428 11.9033 97.6002 13.7731 97.6002 19.2459ZM131.89 31.0123C124.593 31.0123 120.443 28.1391 120.443 22.8944V22.7576H125.368V23.1224C125.368 26.0869 127.147 27.0446 131.89 27.0446C136.314 27.0446 137.636 26.1325 137.636 24.1258C137.636 22.2559 136.542 21.663 133.304 21.207L127.101 20.3861C122.814 19.8388 120.215 18.0145 120.215 14.2292C120.215 10.2614 123.817 7.43384 130.795 7.43384C137.727 7.43384 141.923 10.2158 141.923 15.5974V15.7342H137.043V15.4606C137.043 12.7698 135.675 11.356 130.658 11.356C126.508 11.356 125.049 12.2681 125.049 14.4116C125.049 16.1903 125.961 16.8288 129.381 17.2848L134.626 18.0145C140.008 18.6986 142.47 20.5229 142.47 24.2626C142.47 28.504 138.275 31.0123 131.89 31.0123ZM154.507 28.504C147.757 28.504 143.744 24.2626 143.744 17.9689C143.744 11.6752 147.94 7.43384 154.826 7.43384C159.569 7.43384 163.127 9.57734 163.948 13.5451H164.221V7.8899H168.736V27.9111C168.736 35.5274 163.993 38.7654 156.559 38.7654C149.855 38.7654 145.203 35.6186 145.203 30.1458H150.083C150.083 33.4295 151.999 34.6609 156.833 34.6609C161.986 34.6609 163.856 33.2471 163.856 28.1847V22.6208H163.537C162.716 26.0412 159.661 28.504 154.507 28.504ZM148.715 17.9689C148.715 22.6208 151.451 24.2626 156.103 24.2626C161.12 24.2626 163.856 22.1647 163.856 18.1513V17.5129C163.856 13.6819 161.029 11.7208 156.24 11.7208C151.497 11.7208 148.715 13.3171 148.715 17.9689ZM176.851 30.5563H171.925V7.8899H176.44V14.9133H176.76C177.444 11.0824 180.454 7.43384 186.2 7.43384C192.494 7.43384 195.595 11.6752 195.595 16.92V30.5563H190.67V18.2426C190.67 14.0012 188.754 11.8577 184.057 11.8577C179.086 11.8577 176.851 14.4116 176.851 19.3371V30.5563Z" fill="#F9F9F9"/>
</svg>
